<svg width="225" height="65" viewBox="0 0 225 65" fill="none" xmlns="http://www.w3.org/2000/svg">
<g clip-path="url(#clip0_1_199)">
<path d="M218.01 1.57983C218.793 1.57987 219.569 1.73209 220.293 2.02808C221.017 2.32422 221.674 2.75885 222.228 3.30542C222.781 3.85197 223.22 4.50039 223.519 5.21362C223.818 5.92682 223.972 6.69115 223.972 7.46265L223.973 58.2957C223.973 59.0666 223.819 59.8302 223.52 60.5427C223.22 61.2554 222.782 61.9041 222.229 62.45C221.675 62.9956 221.018 63.4291 220.295 63.7244C219.571 64.0197 218.795 64.1705 218.012 64.1697H6.54883C4.96549 64.1713 3.44714 63.5524 2.32812 62.45C1.27937 61.4167 0.661813 60.0384 0.586914 58.5867L0.579102 58.2947V7.46362C0.581157 5.90491 1.20948 4.40898 2.32812 3.30542C3.37705 2.27068 4.77678 1.65936 6.25293 1.58667L6.5498 1.57983H218.01Z" stroke="white"/>
<path d="M49.356 32.5255C49.3071 27.1614 53.8037 24.5517 54.0093 24.4302C51.4627 20.7638 47.5155 20.2628 46.1285 20.2228C42.8133 19.8783 39.5977 22.1818 37.9089 22.1818C36.1865 22.1818 33.5859 20.2561 30.7832 20.3127C27.1765 20.3676 23.8023 22.4297 21.9518 25.6319C18.1328 32.161 20.981 41.7558 24.64 47.0334C26.4703 49.6197 28.609 52.504 31.4084 52.4025C34.1472 52.2926 35.1702 50.6799 38.4752 50.6799C41.7499 50.6799 42.7105 52.4025 45.5656 52.3376C48.5048 52.2926 50.3554 49.7412 52.1216 47.1332C54.2368 44.1724 55.0862 41.2532 55.1199 41.1034C55.0525 41.0801 49.4133 38.9531 49.356 32.5255ZM43.9628 16.7511C45.4358 14.932 46.4436 12.4571 46.1639 9.94568C44.0319 10.0389 41.3656 11.402 39.8302 13.1811C38.4718 14.7489 37.2584 17.3186 37.5718 19.7352C39.9667 19.9116 42.4257 18.5419 43.9628 16.7511Z" fill="white"/>
<path d="M89.0246 52.0313H85.1972L83.1006 45.5255H75.813L73.8158 52.0313H70.0895L77.3113 29.8826H81.7708L89.0246 52.0313ZM82.4685 42.796L80.5725 37.0125C80.3719 36.4217 79.9944 35.0303 79.4416 32.8401H79.3742C79.1517 33.7821 78.7961 35.1734 78.309 37.0125L76.445 42.796H82.4685ZM107.56 43.8495C107.56 46.5657 106.814 48.7127 105.319 50.2888C103.981 51.6918 102.317 52.3925 100.333 52.3925C98.1914 52.3925 96.6509 51.6385 95.7156 50.1273V58.5072H92.1223V41.3098C92.1223 39.6038 92.0768 37.8546 91.9892 36.0605H95.1493L95.3498 38.5919H95.4172C96.6155 36.6846 98.4341 35.731 100.874 35.731C102.782 35.731 104.375 36.4749 105.649 37.9645C106.922 39.4574 107.56 41.418 107.56 43.8495ZM103.9 43.9793C103.9 42.4249 103.546 41.1433 102.835 40.1331C102.058 39.0829 101.014 38.557 99.7065 38.557C98.82 38.557 98.0144 38.8499 97.2947 39.4274C96.5734 40.0099 96.1015 40.7705 95.8807 41.7125C95.7822 42.0648 95.7262 42.4274 95.7139 42.7927V45.4573C95.7139 46.6173 96.0745 47.5976 96.7959 48.3998C97.5172 49.1986 98.4543 49.5997 99.6071 49.5997C100.96 49.5997 102.014 49.0821 102.767 48.0553C103.522 47.025 103.9 45.667 103.9 43.9793ZM126.162 43.8495C126.162 46.5657 125.415 48.7127 123.92 50.2888C122.58 51.6918 120.919 52.3925 118.933 52.3925C116.791 52.3925 115.251 51.6385 114.315 50.1273V58.5072H110.722V41.3098C110.722 39.6038 110.677 37.8546 110.589 36.0605H113.749L113.95 38.5919H114.017C115.214 36.6846 117.032 35.731 119.474 35.731C121.38 35.731 122.973 36.4749 124.251 37.9645C125.521 39.4574 126.162 41.418 126.162 43.8495ZM122.499 43.9793C122.499 42.4249 122.144 41.1433 121.433 40.1331C120.656 39.0829 119.616 38.557 118.308 38.557C117.421 38.557 116.616 38.8499 115.893 39.4274C115.171 40.0099 114.701 40.7705 114.48 41.7125C114.371 42.1519 114.312 42.5097 114.312 42.7927V45.4573C114.312 46.6173 114.674 47.5976 115.392 48.3998C116.114 49.197 117.051 49.5997 118.207 49.5997C119.562 49.5997 120.615 49.0821 121.367 48.0553C122.122 47.025 122.499 45.667 122.499 43.9793ZM146.959 45.8184C146.959 47.7041 146.292 49.2369 144.966 50.4203C143.506 51.7118 141.468 52.3592 138.856 52.3592C136.443 52.3592 134.508 51.8998 133.048 50.9795L133.879 48.022C135.455 48.944 137.186 49.4034 139.07 49.4034C140.425 49.4034 141.478 49.1005 142.23 48.4996C142.984 47.8971 143.364 47.0916 143.364 46.0864C143.364 45.186 143.049 44.432 142.431 43.8179C141.809 43.2054 140.781 42.6346 139.336 42.1103C135.409 40.664 133.444 38.5487 133.444 35.7659C133.444 33.9485 134.139 32.4606 135.524 31.2972C136.909 30.1355 138.746 29.5547 141.032 29.5547C143.073 29.5547 144.773 29.9059 146.123 30.6065L145.222 33.4991C143.951 32.8201 142.517 32.4806 140.912 32.4806C139.645 32.4806 138.65 32.7885 137.939 33.4009C137.341 33.9485 137.038 34.6159 137.038 35.4081C137.038 36.2819 137.383 37.0075 138.071 37.5767C138.667 38.101 139.756 38.6718 141.33 39.2843C143.262 40.0532 144.681 40.9486 145.589 41.9772C146.504 43.0057 146.959 44.2889 146.959 45.8184ZM158.87 38.7234H154.909V46.4775C154.909 48.4497 155.607 49.4333 157.006 49.4333C157.648 49.4333 158.18 49.3801 158.602 49.2685L158.701 51.9631C157.993 52.2244 157.061 52.3559 155.907 52.3559C154.488 52.3559 153.379 51.9281 152.578 51.0727C151.781 50.2172 151.38 48.7842 151.38 46.7671V38.7168H149.021V36.0539H151.38V33.1296L154.909 32.0778V36.0539H158.87V38.7234ZM176.704 43.9144C176.704 46.3693 175.993 48.3848 174.574 49.9609C173.089 51.5836 171.114 52.3925 168.652 52.3925C166.275 52.3925 164.386 51.6152 162.977 50.0624C161.568 48.5063 160.864 46.5457 160.864 44.1807C160.864 41.7059 161.592 39.6787 163.043 38.1026C164.497 36.5249 166.456 35.736 168.918 35.736C171.291 35.736 173.197 36.5149 174.64 38.0693C176.018 39.5772 176.704 41.5245 176.704 43.9144ZM172.98 43.996C172.98 42.533 172.66 41.2782 172.017 40.228C171.264 38.9598 170.185 38.3256 168.788 38.3256C167.349 38.3256 166.245 38.9598 165.493 40.228C164.85 41.2782 164.529 42.5547 164.529 44.0626C164.529 45.5272 164.85 46.7854 165.493 47.8322C166.27 49.1005 167.354 49.7346 168.758 49.7346C170.131 49.7346 171.208 49.0871 171.987 47.8006C172.648 46.7255 172.98 45.4623 172.98 43.996ZM188.389 39.1811C188.015 39.1145 187.636 39.0816 187.257 39.0829C185.993 39.0829 185.015 39.5523 184.327 40.4976C183.731 41.3297 183.431 42.3816 183.431 43.6515V52.0313H179.838V41.0901C179.841 39.4136 179.806 37.7372 179.733 36.0622H182.863L182.994 39.1179H183.094C183.475 38.0677 184.071 37.2205 184.89 36.5864C185.64 36.0323 186.551 35.7323 187.487 35.731C187.819 35.731 188.119 35.7543 188.386 35.7959L188.389 39.1811ZM204.459 43.2903C204.468 43.8297 204.424 44.3687 204.328 44.8997H193.548C193.588 46.4775 194.111 47.6858 195.112 48.5179C196.02 49.2602 197.195 49.633 198.638 49.633C200.234 49.633 201.69 49.3834 203 48.8791L203.563 51.3406C202.032 51.9997 200.225 52.3276 198.141 52.3276C195.633 52.3276 193.664 51.5986 192.232 50.144C190.803 48.6877 190.086 46.7305 190.086 44.2789C190.086 41.8723 190.752 39.8668 192.085 38.2674C193.481 36.5598 195.367 35.706 197.74 35.706C200.07 35.706 201.835 36.5598 203.033 38.2674C203.982 39.6205 204.459 41.2981 204.459 43.2903ZM201.033 42.3699C201.058 41.3164 200.822 40.4094 200.335 39.6421C199.713 38.6535 198.756 38.1609 197.473 38.1609C196.299 38.1609 195.341 38.6419 194.613 39.6072C194.015 40.3744 193.659 41.2965 193.55 42.3666L201.033 42.3699Z" fill="white"/>
<path d="M74.7764 22.0519C73.777 22.0519 72.9124 22.0037 72.1927 21.9221V11.2139C73.1993 11.0603 74.2164 10.9847 75.2348 10.9875C79.3556 10.9875 81.2533 12.9897 81.2533 16.2534C81.2533 20.0181 79.0118 22.0519 74.7764 22.0519ZM75.3798 12.3606C74.8236 12.3606 74.35 12.3939 73.9573 12.4738V20.614C74.1697 20.6472 74.5775 20.6622 75.1506 20.6622C77.8505 20.6622 79.3876 19.1444 79.3876 16.3017C79.3876 13.7669 77.9972 12.3606 75.3798 12.3606ZM87.1673 22.1335C84.8448 22.1335 83.3398 20.4209 83.3398 18.0958C83.3398 15.6726 84.8769 13.945 87.2987 13.945C89.5875 13.945 91.1262 15.5761 91.1262 17.9677C91.1262 20.4209 89.5403 22.1335 87.1673 22.1335ZM87.2347 15.2199C85.9589 15.2199 85.1415 16.3982 85.1415 18.0459C85.1415 19.662 85.9757 20.8403 87.2178 20.8403C88.46 20.8403 89.2942 19.5804 89.2942 18.0126C89.2942 16.4149 88.4768 15.2199 87.2347 15.2199ZM104.37 14.1065L101.884 21.9554H100.264L99.2345 18.5469C98.9785 17.7131 98.7653 16.8671 98.5958 16.0121H98.5621C98.4323 16.8676 98.1862 17.7247 97.925 18.5469L96.8295 21.9554H95.193L92.8537 14.1065H94.6689L95.5689 17.8379C95.7812 18.7266 95.9599 19.5654 96.1082 20.3577H96.1419C96.2717 19.6969 96.484 18.8714 96.7958 17.8545L97.925 14.1081H99.3643L100.445 17.7746C100.706 18.6634 100.918 19.5355 101.083 20.3593H101.131C101.245 19.5521 101.426 18.695 101.67 17.7746L102.636 14.1081L104.37 14.1065ZM113.521 21.9554H111.755V17.4484C111.755 16.0604 111.216 15.3647 110.152 15.3647C109.106 15.3647 108.386 16.2534 108.386 17.287V21.9554H106.62V16.35C106.62 15.6559 106.603 14.912 106.554 14.1048H108.108L108.191 15.3164H108.239C108.715 14.4776 109.679 13.945 110.759 13.945C112.428 13.945 113.523 15.2049 113.523 17.2554L113.521 21.9554ZM118.392 21.9554H116.624V10.5049H118.392V21.9554ZM124.832 22.1335C122.511 22.1335 121.004 20.4209 121.004 18.0958C121.004 15.6726 122.542 13.945 124.962 13.945C127.252 13.945 128.789 15.5761 128.789 17.9677C128.791 20.4209 127.203 22.1335 124.832 22.1335ZM124.898 15.2199C123.622 15.2199 122.804 16.3982 122.804 18.0459C122.804 19.662 123.64 20.8403 124.879 20.8403C126.123 20.8403 126.956 19.5804 126.956 18.0126C126.957 16.4149 126.141 15.2199 124.898 15.2199ZM135.753 21.9554L135.625 21.0517H135.578C135.039 21.779 134.252 22.1335 133.254 22.1335C131.83 22.1335 130.818 21.1482 130.818 19.8234C130.818 17.8861 132.519 16.8842 135.463 16.8842V16.7394C135.463 15.7059 134.909 15.1883 133.813 15.1883C133.03 15.1883 132.342 15.383 131.737 15.7708L131.378 14.6241C132.113 14.1714 133.03 13.945 134.107 13.945C136.183 13.945 137.231 15.0268 137.231 17.1921V20.083C137.231 20.8753 137.267 21.4894 137.346 21.9571L135.753 21.9554ZM135.51 18.0459C133.549 18.0459 132.564 18.5153 132.564 19.6287C132.564 20.4525 133.072 20.8553 133.776 20.8553C134.675 20.8553 135.51 20.1779 135.51 19.2575V18.0459ZM145.808 21.9554L145.726 20.6955H145.677C145.169 21.6475 144.317 22.1335 143.125 22.1335C141.209 22.1335 139.79 20.4692 139.79 18.1275C139.79 15.6726 141.261 13.9434 143.27 13.9434C144.333 13.9434 145.087 14.2979 145.511 15.0102H145.547V10.5049H147.315V19.84C147.315 20.599 147.333 21.3096 147.381 21.9554H145.808ZM145.547 17.3369C145.547 16.2385 144.81 15.3015 143.686 15.3015C142.377 15.3015 141.576 16.4482 141.576 18.0626C141.576 19.6453 142.407 20.7288 143.651 20.7288C144.761 20.7288 145.547 19.7751 145.547 18.6451V17.3369ZM158.524 22.1335C156.203 22.1335 154.698 20.4209 154.698 18.0958C154.698 15.6726 156.236 13.945 158.656 13.945C160.946 13.945 162.483 15.5761 162.483 17.9677C162.485 20.4209 160.899 22.1335 158.524 22.1335ZM158.59 15.2199C157.316 15.2199 156.498 16.3982 156.498 18.0459C156.498 19.662 157.333 20.8403 158.573 20.8403C159.817 20.8403 160.649 19.5804 160.649 18.0126C160.653 16.4149 159.835 15.2199 158.59 15.2199ZM171.982 21.9554H170.214V17.4484C170.214 16.0604 169.675 15.3647 168.611 15.3647C167.565 15.3647 166.847 16.2534 166.847 17.287V21.9554H165.079V16.35C165.079 15.6559 165.062 14.912 165.013 14.1048H166.567L166.649 15.3164H166.698C167.172 14.4776 168.138 13.9434 169.216 13.9434C170.885 13.9434 171.982 15.2033 171.982 17.2537V21.9554ZM183.865 15.4146H181.922V19.2259C181.922 20.1962 182.263 20.6805 182.95 20.6805C183.262 20.6805 183.523 20.6472 183.734 20.599L183.783 21.9238C183.441 22.0536 182.982 22.1185 182.413 22.1185C181.021 22.1185 180.188 21.3596 180.188 19.3724V15.4146H179.028V14.1065H180.188V12.6685L181.922 12.1509V14.1048H183.865V15.4146ZM193.216 21.9554H191.451V17.4817C191.451 16.077 190.914 15.3664 189.849 15.3664C188.933 15.3664 188.081 15.9805 188.081 17.2237V21.9554H186.316V10.5049H188.081V15.2199H188.116C188.672 14.3644 189.478 13.9434 190.506 13.9434C192.188 13.9434 193.216 15.2349 193.216 17.287V21.9554ZM202.796 18.4503H197.495C197.529 19.9366 198.525 20.7754 200 20.7754C200.783 20.7754 201.505 20.6456 202.142 20.4043L202.416 21.6159C201.665 21.9388 200.78 22.1002 199.75 22.1002C197.264 22.1002 195.793 20.549 195.793 18.1441C195.793 15.7375 197.3 13.9284 199.551 13.9284C201.582 13.9284 202.856 15.4146 202.856 17.6598C202.868 17.9247 202.847 18.1901 202.796 18.4503ZM201.176 17.2071C201.176 15.9955 200.557 15.14 199.428 15.14C198.414 15.14 197.611 16.0121 197.497 17.2071H201.176Z" fill="white"/>
</g>
<defs>
<clipPath id="clip0_1_199">
<rect width="224.5" height="64" fill="white" transform="translate(0 0.875)"/>
</clipPath>
</defs>
</svg>
