<svg width="21" height="20" viewBox="0 0 21 20" fill="none" xmlns="http://www.w3.org/2000/svg">
<path d="M10.6282 14.2355C12.882 14.2355 14.7091 12.4084 14.7091 10.1546C14.7091 7.90071 12.882 6.07361 10.6282 6.07361C8.37434 6.07361 6.54724 7.90071 6.54724 10.1546C6.54724 12.4084 8.37434 14.2355 10.6282 14.2355Z" fill="white"/>
<path d="M15.5346 0.48833C13.0893 0.421371 8.19516 0.421371 5.74994 0.48833C4.47746 0.523214 3.03492 0.839514 2.12829 1.80644C1.18619 2.81153 0.830184 4.02585 0.794075 5.38431C0.730612 7.76861 0.794075 14.925 0.794075 14.925C0.83542 16.2833 1.18619 17.4977 2.12829 18.5028C3.03492 19.4701 4.47746 19.7861 5.74994 19.8209C8.19516 19.8879 13.0893 19.8879 15.5346 19.8209C16.807 19.7861 18.2496 19.4698 19.1562 18.5028C20.0983 17.4977 20.4543 16.2834 20.4904 14.925V5.38431C20.4543 4.02585 20.0983 2.81153 19.1562 1.80644C18.2493 0.839202 16.8067 0.523214 15.5346 0.48833ZM10.6419 16.5052C9.38404 16.5052 8.1544 16.1328 7.1085 15.435C6.0626 14.7371 5.24742 13.7453 4.76604 12.5849C4.28466 11.4245 4.15871 10.1476 4.40412 8.9157C4.64952 7.68381 5.25525 6.55224 6.14472 5.6641C7.03419 4.77595 8.16743 4.17112 9.40116 3.92608C10.6349 3.68104 11.9137 3.80681 13.0758 4.28747C14.238 4.76813 15.2313 5.5821 15.9301 6.62644C16.629 7.67079 17.002 8.89861 17.002 10.1546C17.002 11.8389 16.3319 13.4542 15.1392 14.6452C13.9464 15.8361 12.3287 16.5052 10.6419 16.5052ZM17.029 5.11491C16.7774 5.11485 16.5315 5.04031 16.3224 4.90071C16.1133 4.76111 15.9503 4.56272 15.8541 4.33063C15.7578 4.09854 15.7327 3.84317 15.7818 3.59681C15.8309 3.35046 15.9521 3.12417 16.13 2.94657C16.3079 2.76898 16.5345 2.64804 16.7813 2.59906C17.028 2.55008 17.2838 2.57525 17.5162 2.67139C17.7486 2.76753 17.9472 2.93032 18.087 3.13919C18.2267 3.34805 18.3013 3.5936 18.3013 3.84479C18.3013 4.01161 18.2684 4.1768 18.2045 4.33092C18.1405 4.48504 18.0468 4.62507 17.9287 4.74301C17.8105 4.86096 17.6702 4.95451 17.5159 5.01832C17.3615 5.08213 17.1961 5.11495 17.029 5.11491Z" fill="white"/>
</svg>
