<svg width="15" height="23" viewBox="0 0 15 23" fill="none" xmlns="http://www.w3.org/2000/svg">
<path d="M0.883783 12.4817C0.317612 13.5947 0.960442 14.1267 2.42713 15.0355C3.674 15.8058 5.39652 16.0875 6.503 16.2002C6.04951 16.6361 8.12763 14.6374 2.14266 20.3942C0.873623 21.6106 2.91664 23.5622 4.18475 22.3717L7.6178 19.0606C8.93209 20.325 10.1919 21.5367 11.0508 22.3763C12.3199 23.5715 14.362 21.6365 13.1068 20.3989C13.0126 20.3093 8.45458 15.9369 8.73259 16.2048C9.85292 16.0921 11.5496 15.7938 12.7817 15.0401L12.7808 15.0392C14.2474 14.1257 14.8903 13.5947 14.3324 12.4817C13.9953 11.85 13.0865 11.3217 11.8765 12.2351C11.8765 12.2351 10.2427 13.4866 7.60764 13.4866C4.97166 13.4866 3.33873 12.2351 3.33873 12.2351C2.12973 11.317 1.2172 11.85 0.883783 12.4817Z" fill="white"/>
<path d="M7.6058 11.7991C10.8181 11.7991 13.4411 9.28879 13.4411 6.1984C13.4411 3.09508 10.8181 0.584717 7.6058 0.584717C4.39257 0.584717 1.76953 3.09508 1.76953 6.1984C1.76953 9.28879 4.39257 11.7991 7.6058 11.7991ZM7.6058 3.4285C9.18424 3.4285 10.4718 4.66706 10.4718 6.1984C10.4718 7.71681 9.18424 8.95536 7.6058 8.95536C6.02736 8.95536 4.73985 7.71681 4.73985 6.1984C4.73893 4.66613 6.02643 3.4285 7.6058 3.4285Z" fill="white"/>
</svg>
