<svg width="25" height="15" viewBox="0 0 25 15" fill="none" xmlns="http://www.w3.org/2000/svg">
<path fill-rule="evenodd" clip-rule="evenodd" d="M21.0362 9.24161C21.8214 10.0082 22.6501 10.7294 23.3543 11.5733C23.6653 11.9482 23.9599 12.3352 24.1851 12.7704C24.5044 13.3891 24.2152 14.0698 23.6605 14.1068L20.2123 14.1052C19.3229 14.179 18.6135 13.821 18.0169 13.2129C17.5395 12.7266 17.0974 12.2091 16.6383 11.7064C16.4501 11.5009 16.2531 11.3076 16.0178 11.1548C15.5471 10.8492 15.1385 10.9428 14.8695 11.4337C14.5955 11.9331 14.5334 12.486 14.5064 13.0425C14.4695 13.8545 14.2241 14.068 13.4084 14.1051C11.6653 14.1873 10.0111 13.9236 8.47429 13.0443C7.11942 12.2691 6.06877 11.1748 5.1543 9.93584C3.3738 7.5234 2.01029 4.87252 0.784822 2.14738C0.508979 1.5334 0.710709 1.20382 1.38815 1.19215C2.51306 1.1703 3.63782 1.17185 4.76406 1.1906C5.22126 1.19728 5.52393 1.45952 5.70046 1.89144C6.30907 3.38793 7.05378 4.81171 7.98855 6.13143C8.23749 6.48279 8.49132 6.83414 8.85279 7.08145C9.25267 7.35527 9.55713 7.26451 9.74526 6.81906C9.86463 6.5366 9.91689 6.23237 9.9438 5.92986C10.0329 4.88909 10.0447 3.85011 9.88835 2.81299C9.79238 2.16573 9.42781 1.74671 8.78194 1.62423C8.45236 1.56178 8.50143 1.43914 8.66101 1.25102C8.93818 0.926573 9.19886 0.724609 9.7185 0.724609H13.6155C14.229 0.845694 14.3653 1.1213 14.4493 1.73863L14.4526 6.06743C14.4459 6.30641 14.572 7.01558 15.0025 7.17376C15.347 7.28636 15.574 7.01075 15.7808 6.7923C16.7138 5.80201 17.3797 4.63168 17.9747 3.41982C18.2387 2.88695 18.4657 2.33355 18.6857 1.78062C18.8487 1.37032 19.1045 1.16843 19.5667 1.17737L23.3173 1.18072C23.4285 1.18072 23.5411 1.18235 23.6488 1.20078C24.2808 1.30849 24.454 1.58037 24.2588 2.19754C23.9512 3.16583 23.3528 3.97275 22.7677 4.7834C22.1422 5.64888 21.4732 6.48473 20.8529 7.35535C20.2831 8.15037 20.3283 8.55111 21.0362 9.24161Z" fill="white"/>
</svg>
