<svg width="21" height="17" viewBox="0 0 21 17" fill="none" xmlns="http://www.w3.org/2000/svg">
<path d="M20.4904 2.61696C19.7161 2.95001 18.9416 3.158 18.1676 3.24155C19.0418 2.71704 19.6331 1.97604 19.9412 1.01861C19.1415 1.49309 18.2883 1.8177 17.3808 1.99262C16.5815 1.14341 15.5992 0.718628 14.4333 0.718628C13.3178 0.718628 12.3667 1.11196 11.5796 1.89879C10.7929 2.68559 10.3996 3.63672 10.3996 4.75232C10.3996 5.052 10.4328 5.36017 10.4995 5.67651C8.85091 5.59327 7.30444 5.17907 5.85981 4.43392C4.41526 3.68869 3.1893 2.69582 2.18191 1.45534C1.81557 2.07963 1.63233 2.75829 1.63233 3.49093C1.63233 4.18197 1.79466 4.82314 2.11953 5.41427C2.44419 6.00532 2.88139 6.48399 3.43093 6.85038C2.7814 6.82536 2.17364 6.65463 1.60757 6.33824V6.3882C1.60757 7.36238 1.91355 8.21767 2.52542 8.95473C3.13737 9.6917 3.90964 10.1556 4.84205 10.3472C4.49233 10.4386 4.13842 10.4844 3.78047 10.4844C3.54733 10.4844 3.29336 10.4637 3.01866 10.4223C3.27674 11.2298 3.75134 11.8935 4.44229 12.4141C5.13338 12.9345 5.91602 13.2027 6.79025 13.2198C5.32497 14.3685 3.65568 14.9429 1.78237 14.9429C1.42429 14.9429 1.09968 14.9266 0.808228 14.8931C2.68158 16.1002 4.74635 16.7038 7.00266 16.7038C8.4347 16.7038 9.77934 16.4771 11.0361 16.0233C12.2936 15.5697 13.3675 14.9618 14.2584 14.1998C15.1491 13.4381 15.9173 12.5618 16.5625 11.571C17.2077 10.5802 17.6883 9.54587 18.005 8.46771C18.3212 7.38933 18.4795 6.30929 18.4795 5.22675C18.4795 4.99361 18.4753 4.81885 18.4669 4.70224C19.2581 4.12803 19.9325 3.43271 20.4904 2.61696Z" fill="white"/>
</svg>
