<svg width="225" height="65" viewBox="0 0 225 65" fill="none" xmlns="http://www.w3.org/2000/svg">
<g clip-path="url(#clip0_1_207)">
<path d="M8.81445 1.50452H216.686C221.086 1.5047 224.5 4.80656 224.5 8.97229V56.778C224.5 60.9437 221.086 64.2455 216.686 64.2457H8.81445C4.41417 64.2455 1.00001 60.9437 1 56.778V8.97229C1 4.80656 4.41416 1.5047 8.81445 1.50452Z" stroke="white"/>
<path d="M79.3245 17.2584C79.3245 18.5332 78.9919 19.6487 78.1604 20.4454C77.1626 21.4016 75.9985 21.8796 74.5019 21.8796C73.0052 21.8796 71.8411 21.4016 70.8433 20.4454C69.8456 19.4893 69.3467 18.3739 69.3467 16.9397C69.3467 15.5055 69.8456 14.39 70.8433 13.4339C71.8411 12.4778 73.0052 11.9998 74.5019 11.9998C75.167 11.9998 75.8322 12.1591 76.4974 12.4778C77.1626 12.7965 77.6615 13.1152 77.9941 13.5933L77.1626 14.39C76.4974 13.5933 75.6659 13.2746 74.5019 13.2746C73.5041 13.2746 72.5063 13.5933 71.8411 14.39C71.0096 15.0275 70.677 15.9836 70.677 17.099C70.677 18.2145 71.0096 19.1706 71.8411 19.808C72.6726 20.4454 73.5041 20.9235 74.5019 20.9235C75.6659 20.9235 76.4974 20.6048 77.3289 19.808C77.8278 19.33 78.1604 18.6926 78.1604 17.8958H74.5019V16.621H79.3245V17.2584ZM86.9741 13.2746H82.4841V16.3023H86.6415V17.4177H82.4841V20.4454H86.9741V21.7203H81.1537V12.1591H86.9741V13.2746ZM92.4619 21.7203H91.1315V13.2746H88.3045V12.1591H95.2889V13.2746H92.4619V21.7203ZM100.111 21.7203V12.1591H101.442V21.7203H100.111ZM107.096 21.7203H105.766V13.2746H102.939V12.1591H109.757V13.2746H106.93V21.7203H107.096ZM122.894 20.4454C121.896 21.4016 120.732 21.8796 119.236 21.8796C117.739 21.8796 116.575 21.4016 115.577 20.4454C114.579 19.4893 114.08 18.3739 114.08 16.9397C114.08 15.5055 114.579 14.39 115.577 13.4339C116.575 12.4778 117.739 11.9998 119.236 11.9998C120.732 11.9998 121.896 12.4778 122.894 13.4339C123.892 14.39 124.391 15.5055 124.391 16.9397C124.391 18.3739 123.892 19.4893 122.894 20.4454ZM116.575 19.6487C117.24 20.2861 118.238 20.7641 119.236 20.7641C120.233 20.7641 121.231 20.4454 121.896 19.6487C122.561 19.0113 123.06 18.0552 123.06 16.9397C123.06 15.8242 122.728 14.8681 121.896 14.2307C121.231 13.5933 120.233 13.1152 119.236 13.1152C118.238 13.1152 117.24 13.4339 116.575 14.2307C115.91 14.8681 115.411 15.8242 115.411 16.9397C115.411 18.0552 115.743 19.0113 116.575 19.6487ZM126.22 21.7203V12.1591H127.717L132.539 19.6487V12.1591H133.87V21.7203H132.539L127.384 13.912V21.7203H126.22Z" fill="white" stroke="white" stroke-width="1.18519" stroke-miterlimit="10"/>
<path d="M113.748 35.7434C109.757 35.7434 106.597 38.6117 106.597 42.5955C106.597 46.42 109.757 49.4477 113.748 49.4477C117.739 49.4477 120.899 46.5793 120.899 42.5955C120.899 38.4524 117.739 35.7434 113.748 35.7434ZM113.748 46.5793C111.586 46.5793 109.757 44.8265 109.757 42.4362C109.757 40.0459 111.586 38.293 113.748 38.293C115.91 38.293 117.739 39.8865 117.739 42.4362C117.739 44.8265 115.91 46.5793 113.748 46.5793ZM98.2822 35.7434C94.2911 35.7434 91.1315 38.6117 91.1315 42.5955C91.1315 46.42 94.2911 49.4477 98.2822 49.4477C102.273 49.4477 105.433 46.5793 105.433 42.5955C105.433 38.4524 102.273 35.7434 98.2822 35.7434ZM98.2822 46.5793C96.1204 46.5793 94.2911 44.8265 94.2911 42.4362C94.2911 40.0459 96.1204 38.293 98.2822 38.293C100.444 38.293 102.273 39.8865 102.273 42.4362C102.273 44.8265 100.444 46.5793 98.2822 46.5793ZM79.8233 37.8149V40.6833H86.9741C86.8078 42.2768 86.1426 43.5516 85.3111 44.3484C84.3133 45.3045 82.6504 46.42 79.8233 46.42C75.3333 46.42 72.0074 43.0736 72.0074 38.7711C72.0074 34.4685 75.4996 31.1221 79.8233 31.1221C82.1515 31.1221 83.9807 32.0782 85.3111 33.1937L87.473 31.1221C85.6437 29.5286 83.3156 28.2538 79.9896 28.2538C74.003 28.2538 68.8478 33.0344 68.8478 38.7711C68.8478 44.5078 74.003 49.2883 79.9896 49.2883C83.3156 49.2883 85.6437 48.3322 87.6393 46.2606C89.6348 44.3484 90.3 41.6394 90.3 39.5678C90.3 38.9304 90.3 38.293 90.1337 37.8149H79.8233ZM155.322 40.0459C154.657 38.4524 152.994 35.7434 149.335 35.7434C145.677 35.7434 142.683 38.4524 142.683 42.5955C142.683 46.42 145.677 49.4477 149.668 49.4477C152.827 49.4477 154.823 47.5355 155.488 46.42L153.16 44.8265C152.329 45.9419 151.331 46.7387 149.668 46.7387C148.005 46.7387 147.007 46.1013 146.176 44.6671L155.654 40.8426L155.322 40.0459ZM145.677 42.2768C145.677 39.7272 147.839 38.293 149.335 38.293C150.499 38.293 151.663 38.9304 151.996 39.7272L145.677 42.2768ZM137.861 48.8103H141.02V28.8912H137.861V48.8103ZM132.872 37.1775C132.04 36.3808 130.71 35.584 129.047 35.584C125.555 35.584 122.229 38.6117 122.229 42.4362C122.229 46.2606 125.389 49.129 129.047 49.129C130.71 49.129 132.04 48.3322 132.706 47.5355H132.872V48.4916C132.872 51.0412 131.375 52.4754 129.047 52.4754C127.218 52.4754 125.887 51.2006 125.555 50.0851L122.894 51.2006C123.726 52.9534 125.721 55.1844 129.213 55.1844C132.872 55.1844 135.865 53.1128 135.865 48.1729V36.0621H132.872V37.1775ZM129.213 46.5793C127.051 46.5793 125.222 44.8265 125.222 42.4362C125.222 40.0459 127.051 38.293 129.213 38.293C131.375 38.293 133.038 40.0459 133.038 42.4362C133.038 44.8265 131.375 46.5793 129.213 46.5793ZM169.79 28.8912H162.306V48.8103H165.466V41.3207H169.79C173.282 41.3207 176.608 38.9304 176.608 35.1059C176.608 31.2815 173.282 28.8912 169.79 28.8912ZM169.956 38.4524H165.466V31.6002H169.956C172.284 31.6002 173.614 33.5124 173.614 34.9466C173.448 36.6995 172.118 38.4524 169.956 38.4524ZM189.08 35.584C186.752 35.584 184.424 36.5401 183.592 38.6117L186.419 39.7272C187.084 38.6117 188.082 38.293 189.246 38.293C190.909 38.293 192.406 39.2491 192.572 40.8426V41.002C192.073 40.6833 190.743 40.2052 189.413 40.2052C186.419 40.2052 183.426 41.7988 183.426 44.6671C183.426 47.3761 185.92 49.129 188.581 49.129C190.743 49.129 191.741 48.1729 192.572 47.2167H192.739V48.8103H195.732V41.1613C195.399 37.6556 192.572 35.584 189.08 35.584ZM188.747 46.5793C187.75 46.5793 186.253 46.1013 186.253 44.8265C186.253 43.2329 188.082 42.7549 189.579 42.7549C190.909 42.7549 191.574 43.0736 192.406 43.3923C192.073 45.3045 190.41 46.5793 188.747 46.5793ZM206.209 36.0621L202.716 44.6671H202.55L198.891 36.0621H195.566L201.053 48.1729L197.894 54.8657H201.053L209.534 36.0621H206.209ZM178.271 48.8103H181.43V28.8912H178.271V48.8103Z" fill="white"/>
<path d="M17.7948 12.9559C17.2959 13.434 17.1296 14.2308 17.1296 15.1869V50.4038C17.1296 51.3599 17.4622 52.1567 17.9611 52.6347L18.1274 52.7941L38.7482 33.0344V32.7157L17.7948 12.9559Z" fill="url(#paint0_linear_1_207)"/>
<path d="M45.4001 39.7271L38.5819 33.1936V32.7156L45.4001 26.1821L45.5664 26.3415L53.7149 30.8034C56.043 32.0782 56.043 34.1498 53.7149 35.4246L45.4001 39.7271Z" fill="url(#paint1_linear_1_207)"/>
<path d="M45.5663 39.5678L38.5818 32.875L17.7948 52.7941C18.6263 53.5908 19.7904 53.5908 21.287 52.9534L45.5663 39.5678Z" fill="url(#paint2_linear_1_207)"/>
<path d="M45.5663 26.1821L21.287 12.9558C19.7904 12.1591 18.6263 12.3184 17.7948 13.1152L38.5818 32.8749L45.5663 26.1821Z" fill="url(#paint3_linear_1_207)"/>
<path opacity="0.2" d="M45.4 39.4084L21.287 52.4754C19.9567 53.2721 18.7926 53.1128 17.9611 52.4754L17.7948 52.6347L17.9611 52.7941C18.7926 53.4315 19.9567 53.5908 21.287 52.7941L45.4 39.4084Z" fill="black"/>
<path opacity="0.12" d="M17.7948 52.4754C17.2959 51.9973 17.1296 51.2006 17.1296 50.2444V50.4038C17.1296 51.3599 17.4622 52.1567 17.9611 52.6347V52.4754H17.7948ZM53.7148 34.9466L45.4 39.4085L45.5663 39.5678L53.7148 35.1059C54.8789 34.4685 55.3778 33.6718 55.3778 32.875C55.3778 33.6718 54.7126 34.3092 53.7148 34.9466Z" fill="black"/>
<path opacity="0.25" d="M21.287 13.1152L53.7148 30.8034C54.7126 31.4408 55.3778 32.0782 55.3778 32.875C55.3778 32.0782 54.8789 31.2814 53.7148 30.644L21.287 12.9559C18.9589 11.6811 17.1296 12.6372 17.1296 15.1868V15.3462C17.1296 12.9559 18.9589 11.8404 21.287 13.1152Z" fill="white"/>
</g>
<defs>
<linearGradient id="paint0_linear_1_207" x1="36.7526" y1="14.8841" x2="10.0327" y2="42.7666" gradientUnits="userSpaceOnUse">
<stop stop-color="#00A0FF"/>
<stop offset="0.007" stop-color="#00A1FF"/>
<stop offset="0.26" stop-color="#00BEFF"/>
<stop offset="0.512" stop-color="#00D2FF"/>
<stop offset="0.76" stop-color="#00DFFF"/>
<stop offset="1" stop-color="#00E3FF"/>
</linearGradient>
<linearGradient id="paint1_linear_1_207" x1="56.7647" y1="32.8765" x2="16.526" y2="32.8765" gradientUnits="userSpaceOnUse">
<stop stop-color="#FFE000"/>
<stop offset="0.409" stop-color="#FFBD00"/>
<stop offset="0.775" stop-color="#FFA500"/>
<stop offset="1" stop-color="#FF9C00"/>
</linearGradient>
<linearGradient id="paint2_linear_1_207" x1="41.7864" y1="36.5337" x2="5.55385" y2="74.345" gradientUnits="userSpaceOnUse">
<stop stop-color="#FF3A44"/>
<stop offset="1" stop-color="#C31162"/>
</linearGradient>
<linearGradient id="paint3_linear_1_207" x1="12.6346" y1="1.28485" x2="28.8149" y2="18.1702" gradientUnits="userSpaceOnUse">
<stop stop-color="#32A071"/>
<stop offset="0.069" stop-color="#2DA771"/>
<stop offset="0.476" stop-color="#15CF74"/>
<stop offset="0.801" stop-color="#06E775"/>
<stop offset="1" stop-color="#00F076"/>
</linearGradient>
<clipPath id="clip0_1_207">
<rect width="224.5" height="64" fill="white" transform="translate(0.5 0.875)"/>
</clipPath>
</defs>
</svg>
